<svg viewBox="0 0 1024 1024" version="1.1" xmlns="http://www.w3.org/2000/svg" p-id="1294" xmlns:xlink="http://www.w3.org/1999/xlink" width="48" height="48"><path d="M1002.83733333 412.21688889c-0.56888889-1.25155555-1.024-2.50311111-1.59288888-3.75466667-7.85066667-18.20444445-18.54577778-43.23555555-51.42755556-36.864h-0.22755556c-33.10933333 7.39555555-33.90577778 35.95377778-34.47466666 56.77511111v19.79733334c0 19.11466667 0 38.22933333-0.11377778 57.344-0.11377778 56.20622222-0.22755555 114.34666667 0.68266666 171.80444444 0 18.65955555-5.00622222 27.76177778-19.68355555 35.84-84.08177778 46.64888889-169.18755555 94.54933333-251.56266667 140.74311111-29.92355555 16.83911111-59.84711111 33.56444445-89.65688888 50.40355556-3.072 1.59288889-6.144 3.072-9.55733334 4.43733333 0-31.63022222 0.11377778-63.37422222 0.22755556-94.09422222 0.22755555-89.77066667 0.45511111-174.64888889-0.79644445-261.23377778-0.56888889-24.46222222 6.82666667-37.20533333 28.10311111-48.92444444C702.80533333 432.35555555 823.63733333 364.08888889 942.42133333 296.04977778c12.40177778-6.59911111 26.16888889-24.23466667 26.16888889-38.912 0-14.90488889-13.53955555-33.22311111-25.71377777-39.59466667-144.61155555-75.20711111-290.01955555-148.02488889-413.2408889-209.35111111-13.65333333-7.168-35.61244445-7.50933333-49.83466666-0.68266667l-0.11377778 0.11377778C365.22666667 63.94311111 230.05866667 131.072 95.45955555 200.59022222c-15.47377778 7.96444445-28.89955555 19.91111111-41.87022222 31.51644445-5.80266667 5.23377778-11.264 10.12622222-16.95288888 14.67733333l-3.18577778 2.61688889v477.98044444l2.38933333 2.50311112c4.55111111 4.77866667 9.10222222 10.01244445 13.53955555 15.13244444 10.58133333 12.288 21.504 25.03111111 35.27111112 33.22311111C152.46222222 820.33777778 221.86666667 862.09422222 288.99555555 902.48533333c56.20622222 33.90577778 114.34666667 68.83555555 171.34933334 103.76533334 14.44977778 8.87466667 28.21688889 13.312 42.21155556 13.312 13.53955555 0 27.30666667-4.20977778 41.984-12.51555556 58.14044445-33.33688889 117.53244445-66.90133333 175.104-99.328 76.68622222-43.23555555 155.98933333-88.064 233.24444444-132.89244444 13.88088889-8.07822222 24.12088889-21.27644445 34.01955556-34.01955556 4.66488889-6.03022222 9.44355555-12.17422222 14.44977777-17.63555556l2.27555556-2.5031111V413.92355555l-0.79644445-1.70666666zM491.86133333 442.59555555c-108.88533333-60.18844445-218.33955555-122.53866667-324.15288888-182.84088888l-1.13777778-0.68266667c-0.22755555-0.11377778-0.34133333-0.22755555-0.56888889-0.34133333l17.06666667-8.64711112c104.90311111-52.79288889 204.00355555-102.62755555 305.83466666-151.09688888 8.192-3.86844445 21.61777778-4.20977778 28.672-0.68266667 106.72355555 52.45155555 211.62666667 105.13066667 322.33244444 160.88177778-1.70666667 1.47911111-3.29955555 2.73066667-5.00622222 3.64088889-25.14488889 14.22222222-50.28977778 28.55822222-75.43466666 42.78044444-77.93777778 44.25955555-158.60622222 89.99822222-238.592 134.37155556-8.76088889 4.66488889-23.32444445 5.91644445-28.89955556 2.61688888h-0.11377778z m-373.98755555-31.744c-0.11377778-27.07911111-0.22755555-54.84088889-0.22755556-82.83022222 5.23377778 2.27555555 9.55733333 4.20977778 13.53955556 6.48533334l0.11377777 0.11377778c51.42755555 28.89955555 103.65155555 58.48177778 154.1688889 87.04 50.63111111 28.672 102.96888889 58.25422222 154.624 87.26755555l0.11377777 0.11377778c14.90488889 7.96444445 21.95911111 14.67733333 21.95911111 30.94755555-1.25155555 80.78222222-1.36533333 163.15733333-1.47911111 242.80177778-0.11377778 39.82222222-0.11377778 81.00977778-0.34133333 121.51466667 0 0.91022222-0.11377778 1.70666667-0.22755556 2.84444444-4.77866667-2.95822222-9.55733333-5.91644445-14.336-8.76088889-27.30666667-16.72533333-53.02044445-32.54044445-78.50666666-47.90044444-62.69155555-37.31911111-129.93422222-77.25511111-197.29066667-115.82577778-37.20533333-21.73155555-53.58933333-50.51733333-53.02044445-93.07022222 1.36533333-76.68622222 1.13777778-151.552 0.91022223-230.74133334z" p-id="1295"></path><path d="M381.83822222 545.33688889c-2.73066667-11.264-11.37777778-21.16266667-26.51022222-30.37866667-21.39022222-12.62933333-43.12177778-25.82755555-64.17066667-38.57066667s-42.78044445-25.94133333-64.17066666-38.57066666c-5.34755555-3.29955555-10.92266667-5.34755555-17.97688889-7.73688889-3.072-1.13777778-6.59911111-2.27555555-10.58133333-3.86844445l-5.46133334-2.048-3.98222222 4.20977778c-2.50311111 2.61688889-5.80266667 5.34755555-9.44355556 8.07822222-8.30577778 6.59911111-16.95288889 13.42577778-18.20444444 23.21066667v0.22755556c-1.36533333 14.10844445 6.59911111 36.52266667 19.34222222 45.39733333 31.63022222 21.73155555 64.96711111 41.41511111 97.05244444 60.416 11.03644445 6.48533333 22.41422222 13.312 33.56444445 20.02488889l0.11377778 0.11377778c5.80266667 3.41333333 18.20444445 10.58133333 31.744 10.58133333 10.92266667 0 22.528-4.77866667 31.85777777-20.13866666 6.94044445-10.69511111 9.216-21.16266667 6.82666667-30.94755556z" p-id="1296"></path></svg>